# AST/ASF file generated using VICON BodyLanguage
# -----------------------------------------------
:version 1.10
:name VICON
:units
  mass 1.0
  length 0.45
  angle deg
:documentation
   .ast/.asf automatically generated from VICON data using
   VICON BodyBuilder and BodyLanguage model FoxedUp or BRILLIANT.MOD
:root
   order TX TY TZ RX RY RZ
   axis XYZ
   position 0 0 0  
   orientation 0 0 0 
:bonedata
  begin
     id 1 
     name lhipjoint
     direction 0.566809 -0.746272 0.349008 
     length 2.40479 
     axis 0 0 0  XYZ
  end
  begin
     id 2 
     name lfemur
     direction 0.34202 -0.939693 0  
     length 7.1578  
     axis 0 0 20  XYZ
    dof rx ry rz
    limits (-160.0 20.0)
           (-70.0 70.0)
           (-60.0 70.0)
  end
  begin
     id 3 
     name ltibia
     direction 0.34202 -0.939693 0   
     length 7.49137   
     axis 0 0 20   XYZ
    dof rx
    limits (-10.0 170.0)
  end
  begin
     id 4 
     name lfoot
     direction 0.0665746 -0.182912 0.980873   
     length 2.36784   
     axis -90 7.62852e-016 20   XYZ
    dof rx rz
    limits (-45.0 90.0)
           (-70.0 20.0)
  end
  begin
     id 5 
     name ltoes
     direction 1.53601e-011 -4.22058e-011 1   
     length 1.18966   
     axis -90 7.62852e-016 20   XYZ
    dof rx
    limits (-90.0 20.0)
  end
  begin
     id 6 
     name rhipjoint
     direction -0.550236 -0.756381 0.353735   
     length 2.37265  
     axis 0 0 0  XYZ 
  end
  begin
     id 7 
     name rfemur
     direction -0.34202 -0.939693 0   
     length 7.43386   
     axis 0 0 -20   XYZ
    dof rx ry rz
    limits (-160.0 20.0)
           (-70.0 70.0)
           (-70.0 60.0)
  end
  begin
     id 8 
     name rtibia
     direction -0.34202 -0.939693 0   
     length 7.50908   
     axis 0 0 -20   XYZ
    dof rx
    limits (-10.0 170.0)
 end
 begin
     id 9 
     name rfoot
     direction -0.0683029 -0.187661 0.979856   
     length 2.41173  
     axis -90 -7.62852e-016 -20   XYZ
    dof rx rz
    limits (-45.0 90.0)
           (-20.0 70.0)
  end
  begin
     id 10 
     name rtoes
     direction -1.53528e-011 -4.21968e-011 1   
     length 1.21082   
     axis -90 -7.62852e-016 -20   XYZ
    dof rx
    limits (-90.0 20.0)
  end
  begin
     id 11 
     name lowerback
     direction 0.013823 0.995423 -0.0945635   
     length 2.04495   
     axis 0 0 0   XYZ
    dof rx ry rz
    limits (-20.0 45.0)
           (-30.0 30.0)
           (-30.0 30.0)
  end
  begin
     id 12 
     name upperback
     direction 0.0276657 0.9994 -0.020853   
     length 2.05008   
     axis 0 0 0   XYZ
    dof rx ry rz
    limits (-20.0 45.0)
           (-30.0 30.0)
           (-30.0 30.0)
  end
  begin
     id 13 
     name thorax
     direction 0.019782 0.999531 0.0233827   
     length 2.06488   
     axis 0 0 0   XYZ
    dof rx ry rz
    limits (-20.0 45.0)
           (-30.0 30.0)
           (-30.0 30.0)
  end
  begin
     id 14 
     name lowerneck
     direction -0.0308541 0.994709 0.0979874   
     length 1.75553   
     axis 0 0 0   XYZ
    dof rx ry rz
    limits (-20.0 45.0)
           (-30.0 30.0)
           (-30.0 30.0)
  end
  begin
     id 15 
     name upperneck
     direction 0.0588398 0.995804 -0.0700903   
     length 1.76878   
     axis 0 0 0   XYZ
    dof rx ry rz
    limits (-20.0 45.0)
           (-30.0 30.0)
           (-30.0 30.0)
  end
  begin
     id 16
     name head
     direction 0.0209966 0.999159 -0.0352225  
     length 1.77193  
     axis 0 0 0   XYZ
    dof rx ry rz
    limits (-20.0 45.0)
           (-30.0 30.0)
           (-30.0 30.0)
  end
  begin
     id 17 
     name lclavicle
     direction 0.938182 0.335073 -0.0868338  
     length 3.58396  
     axis 0 0 0   XYZ
    dof ry rz
    limits (-20.0 10.0)
           (0.0 20.0)
  end
  begin
     id 18 
     name lhumerus
     direction 1 -4.48971e-011 -1.26313e-017   
     length 4.983   
     axis 180 -30 -90   XYZ
    dof rx ry rz
    limits (-60.0 90.0)
           (-90.0 90.0)
           (-90.0 90.0)
  end
  begin
     id 19
     name lradius
     direction 1 -4.48948e-011 -5.89033e-027   
     length 3.48356   
     axis 180 -30 -90   XYZ
    dof rx
    limits (-10.0 170.0)
  end
  begin
     id 20
     name lwrist
     direction 1 -4.48977e-011 -1.48983e-026   
     length 1.74178   
     axis 9.0955e-015 90 90   XYZ
    dof ry
    limits (-180.0 0.0)
 end
  begin
     id 21 
     name lhand
     direction 1 -4.49046e-011 -2.98066e-026   
     length 0.715259   
     axis 1.90115e-014 90 90   XYZ
    dof rx rz
    limits (-90.0 90.0)
           (-45.0 45.0)
  end
  begin
     id 22 
     name lfingers
     direction 1 -4.48907e-011 -5.95731e-026   
     length 0.576661   
     axis 3.80223e-014 90 90   XYZ
    dof rx
    limits (0.0 90.0)
  end
  begin
     id 23
     name lthumb
     direction 0.707107 -6.34963e-011 0.707107   
     length 0.827973   
     axis -90 45 -3.84942e-014   XYZ
    dof rx rz
    limits (-45.0 45.0)
           (-45.0 45.0)
  end
  begin
     id 24 
     name rclavicle
     direction -0.909637 0.398485 -0.11735   
     length 3.44819  
     axis 0 0 0   XYZ 
    dof ry rz
    limits (-10.0 20.0)
           (-20.0 0.0)
  end
  begin
     id 25 
     name rhumerus
     direction -1 -4.48978e-011 -1.09333e-027  
     length 5.2419   
     axis 180 30 90   XYZ
    dof rx ry rz
    limits (-90.0 60.0)
           (-90.0 90.0)
           (-90.0 90.0)
  end
  begin
     id 26 
     name rradius
     direction -1 -4.48953e-011 -7.61841e-027   
     length 3.44417   
     axis 180 30 90   XYZ
    dof rx
    limits (-10.0 170.0)
  end
  begin
     id 27 
     name rwrist
     direction -1 -4.48977e-011 -1.48983e-026   
     length 1.72209   
     axis 9.0955e-015 -90 -90   XYZ
    dof ry
    limits (-180.0 0.0)
  end
  begin
     id 28
     name rhand
     direction -1 -4.49027e-011 -2.98038e-026   
     length 0.622529   
     axis 1.90115e-014 -90 -90   XYZ
    dof rx rz
    limits (-90.0 90.0)
           (-45.0 45.0)
  end
  begin
     id 29
     name rfingers
     direction -1 -4.48838e-011 -5.95531e-026   
     length 0.501899   
     axis 3.80223e-014 -90 -90   XYZ
    dof rx
    limits (0.0 90.0)
  end
  begin
     id 30
     name rthumb
     direction -0.707107 -6.34937e-011 0.707107   
     length 0.720629   
     axis -90 -45 3.84942e-014   XYZ
    dof rx rz
    limits (-45.0 45.0)
           (-45.0 45.0)
  end
:hierarchy
  begin
    root lhipjoint rhipjoint lowerback
    lhipjoint lfemur
    lfemur ltibia
    ltibia lfoot
    lfoot ltoes
    rhipjoint rfemur
    rfemur rtibia
    rtibia rfoot
    rfoot rtoes
    lowerback upperback
    upperback thorax
    thorax lowerneck lclavicle rclavicle
    lowerneck upperneck
    upperneck head
    lclavicle lhumerus
    lhumerus lradius
    lradius lwrist
    lwrist lhand lthumb
    lhand lfingers
    rclavicle rhumerus
    rhumerus rradius
    rradius rwrist
    rwrist rhand rthumb
    rhand rfingers
  end

#!OML:ASF F:\VICON\USERDATA\Patient Classification 1\PLAYGROUND\JustinFriday\JustinFriday.ASF
:FULLY-SPECIFIED
:DEGREES
642
root 14.4573 31.005 48.2979 172.483 -4.23854 -167.294
lowerback 32.2673 -3.19891 -6.26459
upperback 4.74287 -7.46277 8.62047
thorax -9.75565 -4.18326 15.8396
lowerneck 5.38739 4.81727 -21.0136
upperneck 17.2655 7.53785 4.04513
head 3.63605 3.36701 4.7496
rclavicle 8.54774e-015 2.34566e-014
rhumerus 52.1432 23.5745 -80.4187
rradius 97.8699
rwrist 14.0975
rhand -21.6048 -12.333
rfingers 7.12502
rthumb 4.79041 -42.2588
lclavicle 8.54774e-015 2.34566e-014
lhumerus 50.9278 15.4628 69.9488
lradius 82.4942
lwrist -25.4599
lhand 2.97313 0.0193458
lfingers 7.12502
lthumb 28.4349 27.8789
rfemur -26.1853 -6.87743 38.3142
rtibia 41.4585
rfoot 10.653 -28.3422
rtoes 54.3137
lfemur -76.5917 13.6991 -15.4803
ltibia 96.7332
lfoot -21.3791 -13.6845
ltoes 8.93064
643
root 14.4519 31.0349 48.2681 172.26 -3.79501 -167.382
lowerback 32.2529 -2.92386 -6.57773
upperback 4.87379 -7.24194 8.60639
thorax -9.63754 -4.09752 15.9119
lowerneck 5.39641 4.784 -20.9833
upperneck 17.3715 7.50086 4.10115
head 3.66939 3.34971 4.76766
rclavicle -6.45553e-014 6.1822e-014
rhumerus 51.722 23.4881 -80.3384
rradius 98.1512
rwrist 14.1534
rhand -21.5221 -12.4729
rfingers 7.12502
rthumb 4.87023 -42.3969
lclavicle -6.45553e-014 6.1822e-014
lhumerus 50.5703 15.1089 70.022
lradius 82.9249
lwrist -25.1171
lhand 2.34864 0.242097
lfingers 7.12502
lthumb 27.838 28.1998
rfemur -25.4928 -6.47851 38.18
rtibia 41.104
rfoot 10.3862 -28.1571
rtoes 54.2448
lfemur -75.3278 14.0193 -15.4094
ltibia 95.9465
lfoot -22.1496 -15.2606
ltoes 14.3694
644
root 14.4271 31.0443 48.2375 172.657 -4.34343 -167.003
lowerback 31.6533 -3.41078 -5.89687
upperback 4.76717 -7.58176 8.65999
thorax -9.47077 -4.27283 15.6414
lowerneck 5.19672 4.75817 -20.9816
upperneck 17.7102 7.56683 4.08373
head 3.8015 3.37044 4.78269
rclavicle -4.70126e-014 -2.8625e-014
rhumerus 51.3119 23.516 -80.2709
rradius 98.4981
rwrist 14.028
rhand -21.8669 -12.3675
rfingers 7.12502
rthumb 4.53727 -42.2989
lclavicle -4.70126e-014 -2.8625e-014
lhumerus 50.0685 14.9829 70.0908
lradius 83.5304
lwrist -25.555
lhand 2.71093 0.474718
lfingers 7.12502
lthumb 28.1843 28.3758
rfemur -25.8423 -6.8882 38.4499
rtibia 40.8254
rfoot 10.3783 -27.9541
rtoes 54.25
lfemur -75.1695 13.2105 -15.317
ltibia 95.3258
lfoot -23.9703 -15.1769
ltoes 14.8178
645
root 14.4182 31.0678 48.2035 172.666 -3.94324 -166.93
lowerback 31.5568 -3.21127 -5.96074
upperback 4.79177 -7.33661 8.66694
thorax -9.46424 -4.15479 15.5943
lowerneck 5.0279 4.63935 -20.8806
upperneck 18.0389 7.47391 4.18906
head 3.93696 3.32116 4.82248
rclavicle 7.45443e-014 -5.24792e-014
rhumerus 50.8029 23.3453 -80.1127
rradius 98.8278
rwrist 13.9016
rhand -22.3661 -12.014
rfingers 7.12502
rthumb 4.05526 -41.9552
lclavicle 7.45443e-014 -5.24792e-014
lhumerus 49.6117 14.5927 70.2262
lradius 84.2133
lwrist -25.9423
lhand 3.09384 0.632966
lfingers 7.12502
lthumb 28.5502 28.4732
rfemur -25.4594 -6.52798 38.5219
rtibia 40.4869
rfoot 10.5694 -27.677
rtoes 54.3249
lfemur -74.189 13.4985 -15.1495
ltibia 94.8413
lfoot -26.208 -14.5934
ltoes 14.5313
646
root 14.4033 31.0955 48.1725 172.541 -3.77893 -167.048
lowerback 31.6418 -3.06086 -6.11647
upperback 4.81269 -7.19656 8.62004
thorax -9.50452 -4.0798 15.5898
lowerneck 4.95908 4.5023 -20.79
upperneck 18.1926 7.30198 4.3054
head 4.00961 3.23812 4.85697
rclavicle 6.70401e-014 6.16232e-015
rhumerus 50.3319 23.179 -79.9446
rradius 99.1424
rwrist 13.8792
rhand -22.4352 -11.9323
rfingers 7.12502
rthumb 3.98849 -41.8747
lclavicle 6.70401e-014 6.16232e-015
lhumerus 49.1534 14.0844 70.2848
lradius 84.7706
lwrist -25.7413
lhand 2.56397 0.723811
lfingers 7.12502
lthumb 28.0438 28.648
rfemur -25.0017 -6.42281 38.2992
rtibia 40.2123
rfoot 11.0338 -27.1335
rtoes 54.5436
lfemur -73.0712 13.5313 -15.2078
ltibia 94.3663
lfoot -28.0267 -14.0469
ltoes 14.6125
647
root 14.3859 31.1336 48.1459 172.332 -3.79078 -167.285
lowerback 31.8475 -2.95663 -6.42556
upperback 4.84911 -7.18565 8.58525
thorax -9.52668 -4.06978 15.7396
lowerneck 4.83606 4.43024 -20.7471
upperneck 18.3872 7.2582 4.31046
head 4.09591 3.21142 4.8655
rclavicle 6.35117e-014 -5.10877e-014
rhumerus 49.9168 23.1039 -79.7722
rradius 99.5382
rwrist 13.7583
rhand -22.513 -11.9908
rfingers 7.12502
rthumb 3.91338 -41.9346
lclavicle 6.35117e-014 -5.10877e-014
lhumerus 48.6694 13.7047 70.2633
lradius 85.1039
lwrist -25.2
lhand 1.36499 0.669068
lfingers 7.12502
lthumb 26.8971 28.7753
rfemur -24.4987 -6.48688 37.889
rtibia 39.974
rfoot 11.6212 -26.4899
rtoes 54.8188
lfemur -71.9173 13.4691 -15.4344
ltibia 93.7794
lfoot -29.3917 -13.9334
ltoes 14.9511
648
root 14.3639 31.1845 48.121 172.113 -3.91413 -167.673
lowerback 32.114 -2.82683 -6.8376
upperback 4.86012 -7.16957 8.51204
thorax -9.59595 -4.0429 15.91
lowerneck 4.65104 4.35515 -20.5532
upperneck 18.7452 7.25615 4.29107
head 4.24254 3.20913 4.85238
rclavicle 1.28713e-014 -2.36554e-014
rhumerus 49.4513 22.8822 -79.5819
rradius 100.181
rwrist 11.9
rhand -22.3574 -11.5156
rfingers 7.12502
rthumb 4.06364 -41.4566
lclavicle 1.28713e-014 -2.36554e-014
lhumerus 48.2481 13.2265 70.3627
lradius 85.5494
lwrist -24.8901
lhand 0.619799 0.753859
lfingers 7.12502
lthumb 26.1839 28.968
rfemur -24.1091 -6.64719 37.2423
rtibia 39.9272
rfoot 11.8929 -25.9096
rtoes 55.0504
lfemur -70.7121 13.1916 -15.8124
ltibia 93.1043
lfoot -30.4518 -13.6408
ltoes 15.0042
649
root 14.3359 31.2237 48.0974 172.171 -4.40943 -167.682
lowerback 32.0471 -3.0669 -6.67214
upperback 4.79658 -7.40306 8.48575
thorax -9.58906 -4.14703 15.8593
lowerneck 4.46394 4.31977 -20.4164
upperneck 19.0758 7.28207 4.36616
head 4.37073 3.22108 4.8762
rclavicle -4.47266e-015 3.73715e-014
rhumerus 49.063 22.9596 -79.3094
rradius 100.178
rwrist 11.166
rhand -24.5949 -10.2874
rfingers 7.12502
rthumb 1.90277 -40.2586
lclavicle -4.47266e-015 3.73715e-014
lhumerus 47.8845 12.8709 70.6313
lradius 86.2782
lwrist -25.1931
lhand 0.812596 0.993936
lfingers 7.12502
lthumb 26.3685 29.1805
rfemur -24.2818 -7.03831 36.9488
rtibia 40.0431
rfoot 12.4612 -25.0931
rtoes 55.4459
lfemur -70.1545 12.4662 -15.9322
ltibia 92.5307
lfoot -30.9619 -13.3341
ltoes 15.429
650
root 14.3092 31.2504 48.0773 172.553 -5.11671 -167.262
lowerback 31.6259 -3.62029 -5.99058
upperback 4.66095 -7.83724 8.54073
thorax -9.50462 -4.36005 15.6431
lowerneck 4.34878 4.3598 -20.3917
upperneck 19.1708 7.34189 4.48878
head 4.40365 3.25042 4.91844
rclavicle 5.32743e-014 4.57205e-015
rhumerus 48.6773 23.1778 -79.1921
rradius 100.267
rwrist 10.9757
rhand -26.2988 -9.62284
rfingers 7.12502
rthumb 0.257195 -39.6024
lclavicle 5.32743e-014 4.57205e-015
lhumerus 47.4761 12.6763 70.8517
lradius 86.9092
lwrist -25.4251
lhand 0.812604 0.991409
lfingers 7.12502
lthumb 26.3685 29.178
rfemur -25.0773 -7.47683 37.1482
rtibia 40.4199
rfoot 13.2897 -23.9421
rtoes 56.015
lfemur -70.4027 11.7406 -15.792
ltibia 92.0815
lfoot -31.043 -13.4081
ltoes 15.7746
651
root 14.3051 31.2993 48.0552 172.56 -4.40875 -167.193
lowerback 31.6552 -3.26261 -6.36757
upperback 4.71782 -7.51057 8.61708
thorax -9.50077 -4.20455 15.842
lowerneck 4.41767 4.4163 -20.3211
upperneck 19.077 7.36824 4.57044
head 4.35456 3.27282 4.92613
rclavicle 6.21202e-015 2.78299e-014
rhumerus 48.1067 23.1253 -79.1824
rradius 100.946
rwrist 11.1915
rhand -25.451 -10.3629
rfingers 7.12502
rthumb 1.07601 -40.34
lclavicle 6.21202e-015 2.78299e-014
lhumerus 46.9737 12.4155 71.0114
lradius 87.4356
lwrist -25.6029
lhand 0.579326 0.851848
lfingers 7.12502
lthumb 26.1451 29.0717
rfemur -25.2096 -6.72919 37.1594
rtibia 40.9915
rfoot 13.9445 -22.6975
rtoes 56.5648
lfemur -69.8826 12.7651 -15.607
ltibia 91.6388
lfoot -31.3481 -13.8842
ltoes 15.5319
652
root 14.2767 31.3568 48.0388 172.585 -4.89896 -167.358
lowerback 31.786 -3.45619 -6.45501
upperback 4.63379 -7.77798 8.58761
thorax -9.56544 -4.31076 15.9666
lowerneck 4.85704 4.49437 -20.3173
upperneck 18.5978 7.32051 4.53287
head 4.14128 3.26622 4.87729
rclavicle 3.42904e-014 3.43897e-014
rhumerus 47.484 22.9919 -79.1732
rradius 101.412
rwrist 12.8752
rhand -24.5889 -11.0464
rfingers 7.12502
rthumb 1.90863 -41.0176
lclavicle 3.42904e-014 3.43897e-014
lhumerus 46.4649 12.2567 71.0945
lradius 88.1151
lwrist -26.3935
lhand 0.980686 0.957755
lfingers 7.12502
lthumb 26.5294 29.1201
rfemur -25.7384 -7.0218 36.6228
rtibia 41.8558
rfoot 14.507 -21.5356
rtoes 57.1606
lfemur -69.3022 11.7722 -15.6533
ltibia 91.0536
lfoot -31.3871 -13.8087
ltoes 15.6751
653
root 14.2632 31.4257 48.0283 172.576 -4.49267 -167.868
lowerback 32.0252 -3.14581 -7.25687
upperback 4.61952 -7.64058 8.46856
thorax -9.64598 -4.20201 16.2673
lowerneck 5.11099 4.52149 -20.3471
upperneck 18.4064 7.25848 4.63775
head 4.04096 3.24544 4.89835
rclavicle 9.54166e-015 -2.60408e-014
rhumerus 46.9257 22.9054 -79.1822
rradius 101.85
rwrist 13.4759
rhand -24.0452 -11.355
rfingers 7.12502
rthumb 2.43373 -41.3209
lclavicle 9.54166e-015 -2.60408e-014
lhumerus 45.8755 12.0489 70.9931
lradius 88.9096
lwrist -27.4189
lhand 1.41218 1.40887
lfingers 7.12502
lthumb 26.9423 29.5082
rfemur -26.2049 -6.57037 35.8549
rtibia 42.891
rfoot 15.74 -19.6635
rtoes 57.9837
lfemur -68.4957 11.9291 -15.8983
ltibia 90.4198
lfoot -31.3198 -13.8447
ltoes 16.0605
654
root 14.2243 31.4888 48.0224 172.581 -5.23536 -168.047
lowerback 32.4579 -3.56238 -7.01966
upperback 4.40814 -8.08605 8.31118
thorax -9.97045 -4.3589 16.164
lowerneck 5.46196 4.61849 -20.3694
upperneck 18.094 7.2629 4.70551
head 3.88241 3.26162 4.89719
rclavicle -1.41982e-013 2.22639e-014
rhumerus 46.4112 22.9668 -79.2894
rradius 102.332
rwrist 13.3415
rhand -23.8516 -11.3757
rfingers 7.12502
rthumb 2.62069 -41.3393
lclavicle -1.41982e-013 2.22639e-014
lhumerus 45.1844 11.7949 71.0285
lradius 89.7687
lwrist -28.3996
lhand 1.56218 1.89142
lfingers 7.12502
lthumb 27.0858 29.9685
rfemur -27.1857 -7.23474 35.177
rtibia 44.1485
rfoot 17.7534 -17.0481
rtoes 58.9458
lfemur -68.0748 10.8605 -16.1919
ltibia 89.7511
lfoot -31.1148 -13.464
ltoes 15.678
655
root 14.1939 31.5514 48.0119 172.648 -5.41878 -168.226
lowerback 32.6721 -3.74323 -7.08314
upperback 4.29144 -8.33338 8.22365
thorax -10.1181 -4.44198 16.216
lowerneck 5.74205 4.75055 -20.4707
upperneck 17.8233 7.34956 4.6893
head 3.74358 3.30951 4.88456
rclavicle -2.1419e-014 1.37161e-014
rhumerus 45.9245 23.2421 -79.1807
rradius 102.706
rwrist 13.1308
rhand -24.0066 -11.3899
rfingers 7.12502
rthumb 2.47097 -41.3553
lclavicle -2.1419e-014 1.37161e-014
lhumerus 44.5264 11.6877 71.1047
lradius 90.3565
lwrist -28.4812
lhand 0.936537 2.03782
lfingers 7.12502
lthumb 26.4871 30.2066
rfemur -28.2911 -7.20197 34.6087
rtibia 45.6013
rfoot 20.3251 -14.1112
rtoes 59.8356
lfemur -67.6434 10.4314 -16.3469
ltibia 89.0931
lfoot -30.9992 -13.152
ltoes 14.5938
656
root 14.1679 31.6219 47.999 172.598 -5.01799 -168.705
lowerback 32.9664 -3.52276 -7.70374
upperback 4.26852 -8.27914 8.11782
thorax -10.2192 -4.37906 16.4612
lowerneck 5.7195 4.77908 -20.663
upperneck 17.8662 7.38534 4.75226
head 3.75029 3.31716 4.93546
rclavicle -3.74709e-014 -3.97569e-014
rhumerus 45.542 23.4956 -79.0456
rradius 103.074
rwrist 12.9774
rhand -24.261 -11.5251
rfingers 7.12502
rthumb 2.22525 -41.4932
lclavicle -3.74709e-014 -3.97569e-014
lhumerus 43.9126 11.5269 71.0751
lradius 90.6758
lwrist -27.5507
lhand -0.407776 2.01112
lfingers 7.12502
lthumb 25.1997 30.3674
rfemur -29.2974 -6.65471 33.7476
rtibia 47.3085
rfoot 22.9398 -10.857
rtoes 60.7327
lfemur -66.7585 10.5955 -16.6729
ltibia 88.376
lfoot -31.0626 -12.9507
ltoes 14.1407
